<svg xmlns="http://www.w3.org/2000/svg">
  <symbol id="icon-male" viewBox="0 0 512 512" xmlns="http://www.w3.org/2000/svg" data-name="Layer 1">
    <path d="m341.3 426.9a181.161 181.161 0 0 1 -256.235 0c-70.645-70.581-70.645-185.526 0-256.178s185.59-70.653 256.235 0 70.639 185.6 0 256.178zm154.7-426.921h-133.41a16 16 0 0 0 0 32.005h94.777l-105.178 105.228c-83.662-72.081-210.444-68.437-289.747 10.859-83.126 83.083-83.126 218.387 0 301.47a213.37 213.37 0 0 0 301.491 0c79.311-79.3 82.94-206.1 10.887-289.754l105.18-105.157v94.8a16 16 0 1 0 32 0v-133.448a16.036 16.036 0 0 0 -16-16.003z" fill="currentColor" fill-rule="evenodd"/>
  </symbol>
  <symbol id="icon-female" viewBox="-76 0 412 412.00109" xmlns="http://www.w3.org/2000/svg">
    <path d="m222.628906 38.160156c35.285156 35.25 47.375 87.535156 31.152344 134.695313-16.222656 47.160156-57.921875 80.941406-107.421875 87.027343v74.117188h42v32h-42v46h-32v-46h-42v-32h42v-74.117188c-56.605469-7.03125-102.074219-50.027343-112.261719-106.148437s17.273438-112.355469 67.792969-138.832031c50.523437-26.476563 112.386719-17.054688 152.738281 23.257812zm-22.628906 161.910156c38.460938-38.460937 38.460938-100.816406 0-139.28125-38.460938-38.460937-100.820312-38.460937-139.28125 0-38.460938 38.464844-38.460938 100.820313 0 139.28125 38.488281 38.398438 100.792969 38.398438 139.28125 0zm0 0" fill="currentColor"/>
  </symbol>
  <symbol id="icon-bin" viewBox="-40 0 496 496" xmlns="http://www.w3.org/2000/svg">
    <path d="m408 64h-112v-56c0-4.417969-3.582031-8-8-8h-160c-4.417969 0-8 3.582031-8 8v56h-112c-4.417969 0-8 3.582031-8 8v56c0 4.417969 3.582031 8 8 8h24.839844l39.199218 352.878906c.449219 4.058594 3.878907 7.125 7.960938 7.121094h256c4.078125 0 7.503906-3.066406 7.953125-7.121094l39.246094-352.878906h24.800781c4.417969 0 8-3.582031 8-8v-56c0-4.417969-3.582031-8-8-8zm-272-48h144v48h-16v-24c0-4.417969-3.582031-8-8-8h-96c-4.417969 0-8 3.582031-8 8v24h-16zm32 48v-16h80v16zm160.800781 416h-241.601562l-38.261719-344h318.125zm71.199219-360h-384v-40h384zm0 0" fill="currentColor"/>
    <path d="m208 448c13.253906 0 24-10.746094 24-24v-240c0-13.253906-10.746094-24-24-24s-24 10.746094-24 24v240c0 13.253906 10.746094 24 24 24zm-8-264c0-4.417969 3.582031-8 8-8s8 3.582031 8 8v240c0 4.417969-3.582031 8-8 8s-8-3.582031-8-8zm0 0" fill="currentColor"/>
    <path d="m82.144531 186.6875 28.253907 240.214844c.871093 8.589844 6.300781 16.042968 14.214843 19.5 7.910157 3.453125 17.070313 2.371094 23.960938-2.828125 6.886719-5.203125 10.4375-13.714844 9.28125-22.269531l-28.253907-240.207032c-.871093-8.589844-6.300781-16.042968-14.214843-19.5-7.910157-3.453125-17.070313-2.371094-23.960938 2.828125-6.886719 5.203125-10.4375 13.714844-9.28125 22.269531zm17.832031-8c1.480469-1.710938 3.632813-2.691406 5.894532-2.6875 4.003906-.003906 7.371094 2.992188 7.832031 6.96875l28.265625 240.230469c.511719 4.328125-2.582031 8.253906-6.910156 8.765625-4.328125.511718-8.25-2.582032-8.761719-6.910156l-28.265625-240.253907c-.261719-2.238281.457031-4.480469 1.96875-6.152343zm0 0" fill="currentColor"/>
    <path d="m281.871094 448c12.113281 0 22.308594-9.066406 23.730468-21.097656l28.253907-240.222656c1.546875-13.105469-7.824219-24.980469-20.925781-26.527344-13.105469-1.546875-24.984376 7.824218-26.53125 20.925781l-28.253907 240.242187c-.796875 6.773438 1.339844 13.570313 5.875 18.667969 4.53125 5.097657 11.03125 8.011719 17.851563 8.011719zm20.425781-265.03125c.460937-3.976562 3.828125-6.972656 7.832031-6.96875 2.25 0 4.394532.964844 5.890625 2.644531 1.496094 1.679688 2.207031 3.917969 1.949219 6.15625l-28.265625 240.230469c-.460937 3.976562-3.828125 6.972656-7.832031 6.96875-2.25 0-4.394532-.964844-5.890625-2.644531-1.496094-1.679688-2.207031-3.917969-1.949219-6.15625zm0 0" fill="currentColor"/>
  </symbol>
  <symbol id="icon-dice" xmlns="http://www.w3.org/2000/svg" xmlns:xlink="http://www.w3.org/1999/xlink" x="0px" y="0px" viewBox="0 0 512 512" style="enable-background:new 0 0 512 512;" xml:space="preserve">
    <path style="fill:#FFFFFF;" d="M55.552,508C27.12,508,4,484.872,4,456.448V55.552C4,27.128,27.128,4,55.552,4H456.44 c28.432,0,51.552,23.128,51.552,51.552V456.44c0,28.432-23.128,51.552-51.552,51.552H55.552V508z"/>
    <path style="fill:#CCCCCC;" d="M456.448,8C482.664,8,504,29.336,504,55.552V456.44c0,26.224-21.336,47.56-47.552,47.56H55.552 C29.336,504,8,482.664,8,456.448V55.552C8,29.336,29.336,8,55.552,8H456.448 M456.448,0H55.552C24.872,0,0,24.872,0,55.552V456.44 C0,487.128,24.872,512,55.552,512H456.44c30.688,0,55.56-24.872,55.56-55.552V55.552C512,24.872,487.128,0,456.448,0L456.448,0z"/>
    <g><circle style="fill:#333333;" cx="166.088" cy="394.72" r="45.256"/><circle style="fill:#333333;" cx="166.088" cy="256" r="45.256"/><circle style="fill:#333333;" cx="166.088" cy="117.256" r="45.256"/><circle style="fill:#333333;" cx="345.92" cy="394.72" r="45.256"/><circle style="fill:#333333;" cx="345.92" cy="256" r="45.256"/><circle style="fill:#333333;" cx="345.92" cy="117.256" r="45.256"/></g>
  </symbol>
  <symbol id="icon-movie" viewBox="0 0 48 48" xmlns="http://www.w3.org/2000/svg" data-name="flat final copy">
    <path d="m22.119 21.006h3.762v4.247h-3.762z" fill="#a9c0ee"/><path d="m27.521 26.324h-7.042a.75.75 0 0 1 0-1.5h7.042a.75.75 0 0 1 0 1.5z" fill="#becff2"/><path d="m19.944 31.355-4.431-1.747v-1.17h-3.331v1.17l-4.431 1.747a1.727 1.727 0 0 0 -1.211 1.669v.184h14.615v-.184a1.727 1.727 0 0 0 -1.211-1.669z" fill="#ffc7b5"/><path d="m19.944 31.355-4.431-1.747h-3.331l-4.431 1.747a1.727 1.727 0 0 0 -1.211 1.669v.184h14.615v-.184a1.727 1.727 0 0 0 -1.211-1.669z" fill="#d763ad"/><path d="m5.913.75h36.173v19.936h-36.173z" fill="#1b60db"/><path d="m21.155 7.936v5.564l5.69-2.782z" fill="#eaeffb"/><path d="m39.888 29.807-4.777-1.747v-2.269h-3.362v2.269l-4.778 1.747a1.951 1.951 0 0 0 -1.3 1.839v1.615h15.522v-1.615a1.952 1.952 0 0 0 -1.305-1.839z" fill="#ffc7b5"/><path d="m35.111 28.06 4.777 1.747a1.952 1.952 0 0 1 1.3 1.839v1.615h-15.521v-1.615a1.951 1.951 0 0 1 1.3-1.839l4.778-1.747a6.311 6.311 0 0 0 3.362 0z" fill="#2ecdce"/><path d="m3.808 33.024h40.384a3.058 3.058 0 0 1 3.058 3.058v11.655a0 0 0 0 1 0 0h-46.5a0 0 0 0 1 0 0v-11.655a3.058 3.058 0 0 1 3.058-3.058z" fill="#a9c0ee"/><path d="m42.086 21.436h-36.172a.75.75 0 0 1 -.75-.75v-19.936a.75.75 0 0 1 .75-.75h36.172a.75.75 0 0 1 .75.75v19.936a.75.75 0 0 1 -.75.75zm-35.422-1.5h34.672v-18.436h-34.672z" fill="#becff2"/><g fill="#5772a1"><path d="m38.688 17.575c-.462-2.246-2.963-2.541-4.427-2.541a11.971 11.971 0 0 0 -3.722.77 1.766 1.766 0 0 1 -1.466-.634 4.887 4.887 0 0 0 -.441 4.976 5.265 5.265 0 0 0 1.488 1.578v1.527a3.368 3.368 0 0 0 3.368 3.367h.012a3.368 3.368 0 0 0 3.367-3.367v-1.527a4.141 4.141 0 0 0 1.821-4.149z"/><path d="m13.847 16.178a5.636 5.636 0 0 0 -5.647 5.622v4.78a1.988 1.988 0 0 0 1.988 1.989h7.319a1.988 1.988 0 0 0 1.993-1.987v-4.782a5.636 5.636 0 0 0 -5.653-5.622z"/></g>
  </symbol>
</svg>